<svg xmlns="http://www.w3.org/2000/svg" xmlns:xlink="http://www.w3.org/1999/xlink" width="210" zoomAndPan="magnify" viewBox="0 0 157.5 70.499998" height="94" preserveAspectRatio="xMidYMid meet" version="1.0"><defs><g/><clipPath id="cda741595a"><path d="M 0.304688 0.105469 L 149.25 0.105469 L 149.25 69.363281 L 0.304688 69.363281 Z M 0.304688 0.105469 " clip-rule="nonzero"/></clipPath></defs><g clip-path="url(#cda741595a)"><path fill="#ffffff" d="M 140.273438 69.492188 L 9.5625 69.492188 C 4.515625 69.492188 0.410156 65.382812 0.410156 60.335938 L 0.410156 9.257812 C 0.410156 4.210938 4.515625 0.105469 9.5625 0.105469 L 32.019531 0.105469 C 33.042969 0.105469 34.007812 0.503906 34.730469 1.230469 C 35.457031 1.957031 35.851562 2.921875 35.847656 3.949219 C 35.84375 5.753906 35.832031 5.433594 35.828125 6.78125 C 35.820312 8.058594 35.8125 8.132812 35.8125 8.867188 C 38.386719 9.152344 39.742188 10.425781 40.4375 11.507812 C 41.3125 12.867188 41.492188 14.390625 41.492188 15.429688 L 41.492188 18.644531 C 41.492188 21.9375 42.34375 25.246094 43.953125 28.210938 C 44.777344 29.726562 45.210938 31.445312 45.203125 33.183594 C 45.1875 38.839844 40.570312 43.476562 34.914062 43.519531 C 34.886719 43.519531 34.863281 43.519531 34.835938 43.519531 C 32.078125 43.519531 29.488281 42.453125 27.53125 40.507812 C 25.554688 38.546875 24.46875 35.933594 24.46875 33.152344 C 24.46875 31.355469 24.933594 29.585938 25.816406 28.035156 C 27.363281 25.316406 28.179688 22.296875 28.179688 19.3125 L 28.179688 18.039062 C 28.179688 16.640625 29.316406 15.5 30.714844 15.5 L 32.886719 15.5 C 34.289062 15.5 35.425781 16.640625 35.425781 18.039062 L 35.425781 31.863281 C 35.425781 31.921875 35.472656 31.972656 35.53125 31.972656 L 37.574219 31.972656 C 38.148438 31.972656 38.617188 32.4375 38.617188 33.011719 C 38.617188 33.585938 38.148438 34.050781 37.574219 34.050781 L 35.53125 34.050781 C 34.328125 34.050781 33.34375 33.070312 33.34375 31.863281 L 33.34375 18.039062 C 33.34375 17.785156 33.140625 17.582031 32.886719 17.582031 L 30.714844 17.582031 C 30.464844 17.582031 30.257812 17.785156 30.257812 18.039062 L 30.257812 19.3125 C 30.257812 22.660156 29.347656 26.03125 27.625 29.0625 C 26.921875 30.300781 26.546875 31.714844 26.546875 33.152344 C 26.546875 35.375 27.417969 37.464844 28.996094 39.03125 C 30.5625 40.585938 32.632812 41.4375 34.835938 41.4375 C 34.855469 41.4375 34.878906 41.4375 34.898438 41.4375 C 39.421875 41.40625 43.109375 37.699219 43.125 33.175781 C 43.128906 31.789062 42.78125 30.414062 42.125 29.203125 C 40.351562 25.9375 39.414062 22.285156 39.414062 18.644531 L 39.414062 15.429688 C 39.414062 13.375 38.609375 10.914062 34.777344 10.890625 C 34.429688 10.886719 33.765625 10.65625 33.738281 9.808594 C 33.738281 9.757812 33.734375 9.675781 33.734375 9.574219 C 33.734375 9.382812 33.730469 9.101562 33.734375 8.742188 C 33.734375 8.03125 33.738281 8.054688 33.746094 6.769531 C 33.753906 5.421875 33.761719 5.746094 33.769531 3.941406 C 33.769531 3.472656 33.589844 3.03125 33.257812 2.699219 C 32.925781 2.367188 32.488281 2.183594 32.019531 2.183594 L 9.5625 2.183594 C 5.664062 2.183594 2.488281 5.359375 2.488281 9.257812 L 2.488281 60.335938 C 2.488281 64.238281 5.664062 67.410156 9.5625 67.410156 L 140.273438 67.410156 C 144.175781 67.410156 147.347656 64.238281 147.347656 60.335938 L 147.347656 9.257812 C 147.347656 5.359375 144.175781 2.183594 140.273438 2.183594 L 41.425781 2.183594 C 40.851562 2.183594 40.382812 1.71875 40.382812 1.144531 C 40.382812 0.570312 40.851562 0.105469 41.425781 0.105469 L 140.273438 0.105469 C 145.320312 0.105469 149.429688 4.210938 149.429688 9.257812 L 149.429688 60.335938 C 149.429688 65.382812 145.320312 69.492188 140.273438 69.492188 " fill-opacity="1" fill-rule="nonzero"/></g><path fill="#ffffff" d="M 34.835938 53.992188 C 34.261719 53.992188 33.796875 53.523438 33.796875 52.949219 L 33.796875 46.984375 C 33.796875 46.410156 34.261719 45.945312 34.835938 45.945312 C 35.410156 45.945312 35.875 46.410156 35.875 46.984375 L 35.875 52.949219 C 35.875 53.523438 35.410156 53.992188 34.835938 53.992188 " fill-opacity="1" fill-rule="nonzero"/><path fill="#ffffff" d="M 44.910156 51.292969 C 44.550781 51.292969 44.203125 51.105469 44.007812 50.773438 L 41.027344 45.605469 C 40.738281 45.109375 40.910156 44.472656 41.40625 44.183594 C 41.902344 43.898438 42.539062 44.066406 42.828125 44.566406 L 45.8125 49.730469 C 46.097656 50.230469 45.925781 50.867188 45.429688 51.152344 C 45.265625 51.246094 45.085938 51.292969 44.910156 51.292969 " fill-opacity="1" fill-rule="nonzero"/><path fill="#ffffff" d="M 52.28125 43.917969 C 52.105469 43.917969 51.925781 43.871094 51.765625 43.777344 L 46.597656 40.796875 C 46.101562 40.507812 45.929688 39.871094 46.214844 39.375 C 46.503906 38.875 47.140625 38.707031 47.636719 38.992188 L 52.804688 41.976562 C 53.300781 42.265625 53.472656 42.898438 53.183594 43.398438 C 52.992188 43.730469 52.640625 43.917969 52.28125 43.917969 " fill-opacity="1" fill-rule="nonzero"/><path fill="#ffffff" d="M 54.984375 33.84375 L 49.015625 33.84375 C 48.441406 33.84375 47.976562 33.378906 47.976562 32.804688 C 47.976562 32.230469 48.441406 31.765625 49.015625 31.765625 L 54.984375 31.765625 C 55.558594 31.765625 56.023438 32.230469 56.023438 32.804688 C 56.023438 33.378906 55.558594 33.84375 54.984375 33.84375 " fill-opacity="1" fill-rule="nonzero"/><path fill="#ffffff" d="M 20.65625 33.84375 L 14.6875 33.84375 C 14.113281 33.84375 13.648438 33.378906 13.648438 32.804688 C 13.648438 32.230469 14.113281 31.765625 14.6875 31.765625 L 20.65625 31.765625 C 21.230469 31.765625 21.695312 32.230469 21.695312 32.804688 C 21.695312 33.378906 21.230469 33.84375 20.65625 33.84375 " fill-opacity="1" fill-rule="nonzero"/><path fill="#ffffff" d="M 17.390625 43.917969 C 17.03125 43.917969 16.679688 43.730469 16.488281 43.398438 C 16.199219 42.898438 16.371094 42.265625 16.867188 41.976562 L 22.035156 38.992188 C 22.53125 38.707031 23.167969 38.875 23.457031 39.375 C 23.742188 39.871094 23.574219 40.507812 23.074219 40.796875 L 17.910156 43.777344 C 17.746094 43.871094 17.566406 43.917969 17.390625 43.917969 " fill-opacity="1" fill-rule="nonzero"/><path fill="#ffffff" d="M 24.761719 51.292969 C 24.585938 51.292969 24.40625 51.246094 24.242188 51.152344 C 23.746094 50.867188 23.574219 50.230469 23.863281 49.730469 L 26.84375 44.566406 C 27.132812 44.066406 27.769531 43.898438 28.265625 44.183594 C 28.761719 44.472656 28.933594 45.109375 28.648438 45.605469 L 25.664062 50.773438 C 25.472656 51.105469 25.121094 51.292969 24.761719 51.292969 " fill-opacity="1" fill-rule="nonzero"/><g fill="#ffffff" fill-opacity="1"><g transform="translate(66.131253, 28.223499)"><g><path d="M 5.328125 -13.28125 L 0.09375 -13.28125 L 0.09375 -16.375 L 14.359375 -16.375 L 14.359375 -13.28125 L 9.125 -13.28125 L 9.125 0 L 5.328125 0 Z M 5.328125 -13.28125 "/></g></g></g><g fill="#ffffff" fill-opacity="1"><g transform="translate(80.582093, 28.223499)"><g><path d="M 5.171875 -10.921875 C 5.609375 -11.523438 6.195312 -11.984375 6.9375 -12.296875 C 7.675781 -12.609375 8.53125 -12.765625 9.5 -12.765625 L 9.5 -9.40625 C 9.09375 -9.4375 8.816406 -9.453125 8.671875 -9.453125 C 7.628906 -9.453125 6.8125 -9.160156 6.21875 -8.578125 C 5.625 -7.992188 5.328125 -7.113281 5.328125 -5.9375 L 5.328125 0 L 1.6875 0 L 1.6875 -12.578125 L 5.171875 -12.578125 Z M 5.171875 -10.921875 "/></g></g></g><g fill="#ffffff" fill-opacity="1"><g transform="translate(90.66026, 28.223499)"><g><path d="M 1.6875 -12.578125 L 5.328125 -12.578125 L 5.328125 0 L 1.6875 0 Z M 3.515625 -14.34375 C 2.847656 -14.34375 2.300781 -14.535156 1.875 -14.921875 C 1.457031 -15.316406 1.25 -15.800781 1.25 -16.375 C 1.25 -16.945312 1.457031 -17.425781 1.875 -17.8125 C 2.300781 -18.207031 2.847656 -18.40625 3.515625 -18.40625 C 4.179688 -18.40625 4.722656 -18.21875 5.140625 -17.84375 C 5.566406 -17.46875 5.78125 -17 5.78125 -16.4375 C 5.78125 -15.832031 5.566406 -15.332031 5.140625 -14.9375 C 4.722656 -14.539062 4.179688 -14.34375 3.515625 -14.34375 Z M 3.515625 -14.34375 "/></g></g></g><g fill="#ffffff" fill-opacity="1"><g transform="translate(97.698612, 28.223499)"><g><path d="M 14.171875 -12.578125 L 8.859375 0 L 5.09375 0 L -0.1875 -12.578125 L 3.578125 -12.578125 L 7.0625 -4.015625 L 10.671875 -12.578125 Z M 14.171875 -12.578125 "/></g></g></g><g fill="#ffffff" fill-opacity="1"><g transform="translate(111.681777, 28.223499)"><g><path d="M 1.6875 -12.578125 L 5.328125 -12.578125 L 5.328125 0 L 1.6875 0 Z M 3.515625 -14.34375 C 2.847656 -14.34375 2.300781 -14.535156 1.875 -14.921875 C 1.457031 -15.316406 1.25 -15.800781 1.25 -16.375 C 1.25 -16.945312 1.457031 -17.425781 1.875 -17.8125 C 2.300781 -18.207031 2.847656 -18.40625 3.515625 -18.40625 C 4.179688 -18.40625 4.722656 -18.21875 5.140625 -17.84375 C 5.566406 -17.46875 5.78125 -17 5.78125 -16.4375 C 5.78125 -15.832031 5.566406 -15.332031 5.140625 -14.9375 C 4.722656 -14.539062 4.179688 -14.34375 3.515625 -14.34375 Z M 3.515625 -14.34375 "/></g></g></g><g fill="#ffffff" fill-opacity="1"><g transform="translate(118.720128, 28.223499)"><g><path d="M 6.765625 -12.765625 C 8.710938 -12.765625 10.207031 -12.300781 11.25 -11.375 C 12.289062 -10.445312 12.8125 -9.050781 12.8125 -7.1875 L 12.8125 0 L 9.40625 0 L 9.40625 -1.5625 C 8.71875 -0.394531 7.4375 0.1875 5.5625 0.1875 C 4.59375 0.1875 3.753906 0.0234375 3.046875 -0.296875 C 2.335938 -0.628906 1.796875 -1.082031 1.421875 -1.65625 C 1.046875 -2.238281 0.859375 -2.894531 0.859375 -3.625 C 0.859375 -4.789062 1.300781 -5.707031 2.1875 -6.375 C 3.070312 -7.050781 4.429688 -7.390625 6.265625 -7.390625 L 9.171875 -7.390625 C 9.171875 -8.179688 8.925781 -8.789062 8.4375 -9.21875 C 7.957031 -9.65625 7.234375 -9.875 6.265625 -9.875 C 5.597656 -9.875 4.941406 -9.765625 4.296875 -9.546875 C 3.648438 -9.335938 3.097656 -9.054688 2.640625 -8.703125 L 1.328125 -11.25 C 2.015625 -11.726562 2.835938 -12.097656 3.796875 -12.359375 C 4.753906 -12.628906 5.742188 -12.765625 6.765625 -12.765625 Z M 6.484375 -2.265625 C 7.109375 -2.265625 7.660156 -2.410156 8.140625 -2.703125 C 8.617188 -2.992188 8.960938 -3.414062 9.171875 -3.96875 L 9.171875 -5.265625 L 6.671875 -5.265625 C 5.171875 -5.265625 4.421875 -4.773438 4.421875 -3.796875 C 4.421875 -3.328125 4.601562 -2.953125 4.96875 -2.671875 C 5.332031 -2.398438 5.835938 -2.265625 6.484375 -2.265625 Z M 6.484375 -2.265625 "/></g></g></g><g fill="#ffffff" fill-opacity="1"><g transform="translate(66.131253, 56.72175)"><g><path d="M 5.328125 -13.28125 L 0.09375 -13.28125 L 0.09375 -16.375 L 14.359375 -16.375 L 14.359375 -13.28125 L 9.125 -13.28125 L 9.125 0 L 5.328125 0 Z M 5.328125 -13.28125 "/></g></g></g><g fill="#ffffff" fill-opacity="1"><g transform="translate(80.582093, 56.72175)"><g><path d="M 7.671875 0.1875 C 6.347656 0.1875 5.160156 -0.0859375 4.109375 -0.640625 C 3.054688 -1.191406 2.234375 -1.957031 1.640625 -2.9375 C 1.046875 -3.925781 0.75 -5.046875 0.75 -6.296875 C 0.75 -7.535156 1.046875 -8.644531 1.640625 -9.625 C 2.234375 -10.613281 3.054688 -11.382812 4.109375 -11.9375 C 5.160156 -12.488281 6.347656 -12.765625 7.671875 -12.765625 C 8.992188 -12.765625 10.175781 -12.488281 11.21875 -11.9375 C 12.269531 -11.382812 13.09375 -10.613281 13.6875 -9.625 C 14.28125 -8.644531 14.578125 -7.535156 14.578125 -6.296875 C 14.578125 -5.046875 14.28125 -3.925781 13.6875 -2.9375 C 13.09375 -1.957031 12.269531 -1.191406 11.21875 -0.640625 C 10.175781 -0.0859375 8.992188 0.1875 7.671875 0.1875 Z M 7.671875 -2.8125 C 8.609375 -2.8125 9.375 -3.125 9.96875 -3.75 C 10.570312 -4.382812 10.875 -5.234375 10.875 -6.296875 C 10.875 -7.347656 10.570312 -8.191406 9.96875 -8.828125 C 9.375 -9.460938 8.609375 -9.78125 7.671875 -9.78125 C 6.734375 -9.78125 5.957031 -9.460938 5.34375 -8.828125 C 4.738281 -8.191406 4.4375 -7.347656 4.4375 -6.296875 C 4.4375 -5.234375 4.738281 -4.382812 5.34375 -3.75 C 5.957031 -3.125 6.734375 -2.8125 7.671875 -2.8125 Z M 7.671875 -2.8125 "/></g></g></g><g fill="#ffffff" fill-opacity="1"><g transform="translate(95.898103, 56.72175)"><g><path d="M 21.890625 -12.578125 L 17.328125 0 L 13.828125 0 L 11 -7.8125 L 8.0625 0 L 4.5625 0 L 0.015625 -12.578125 L 3.46875 -12.578125 L 6.4375 -4.0625 L 9.515625 -12.578125 L 12.609375 -12.578125 L 15.59375 -4.0625 L 18.671875 -12.578125 Z M 21.890625 -12.578125 "/></g></g></g><g fill="#ffffff" fill-opacity="1"><g transform="translate(117.808184, 56.72175)"><g><path d="M 14.015625 -6.25 C 14.015625 -6.195312 13.988281 -5.867188 13.9375 -5.265625 L 4.421875 -5.265625 C 4.585938 -4.484375 4.988281 -3.863281 5.625 -3.40625 C 6.269531 -2.957031 7.066406 -2.734375 8.015625 -2.734375 C 8.671875 -2.734375 9.253906 -2.832031 9.765625 -3.03125 C 10.273438 -3.226562 10.75 -3.535156 11.1875 -3.953125 L 13.125 -1.84375 C 11.9375 -0.488281 10.203125 0.1875 7.921875 0.1875 C 6.503906 0.1875 5.25 -0.0859375 4.15625 -0.640625 C 3.070312 -1.191406 2.234375 -1.957031 1.640625 -2.9375 C 1.046875 -3.925781 0.75 -5.046875 0.75 -6.296875 C 0.75 -7.523438 1.039062 -8.632812 1.625 -9.625 C 2.207031 -10.613281 3.007812 -11.382812 4.03125 -11.9375 C 5.050781 -12.488281 6.195312 -12.765625 7.46875 -12.765625 C 8.695312 -12.765625 9.804688 -12.5 10.796875 -11.96875 C 11.796875 -11.445312 12.582031 -10.6875 13.15625 -9.6875 C 13.726562 -8.695312 14.015625 -7.550781 14.015625 -6.25 Z M 7.484375 -10.015625 C 6.660156 -10.015625 5.96875 -9.78125 5.40625 -9.3125 C 4.84375 -8.84375 4.5 -8.203125 4.375 -7.390625 L 10.578125 -7.390625 C 10.453125 -8.179688 10.109375 -8.816406 9.546875 -9.296875 C 8.984375 -9.773438 8.296875 -10.015625 7.484375 -10.015625 Z M 7.484375 -10.015625 "/></g></g></g><g fill="#ffffff" fill-opacity="1"><g transform="translate(132.563005, 56.72175)"><g><path d="M 5.171875 -10.921875 C 5.609375 -11.523438 6.195312 -11.984375 6.9375 -12.296875 C 7.675781 -12.609375 8.53125 -12.765625 9.5 -12.765625 L 9.5 -9.40625 C 9.09375 -9.4375 8.816406 -9.453125 8.671875 -9.453125 C 7.628906 -9.453125 6.8125 -9.160156 6.21875 -8.578125 C 5.625 -7.992188 5.328125 -7.113281 5.328125 -5.9375 L 5.328125 0 L 1.6875 0 L 1.6875 -12.578125 L 5.171875 -12.578125 Z M 5.171875 -10.921875 "/></g></g></g></svg>